PathFileType	4	(X/Y/Z)	C:/Users/dbak576/Desktop/Duncan Bakke Modelling Files/H29s1/Static_H29s1.trc	
DataRate	CameraRate	NumFrames	NumMarkers	Units	OrigDataRate	OrigDataStartFrame	OrigNumFrames	
200.00	200.00	5	66	mm	200.00	551	734	
Frame#	Time	LFHD			RFHD			LBHD			RBHD			C7			T10			CLAV			STRN			RBack			LASI			RASI			LPSI			RACR1			RUA1			RElbow			RElbowM			RFA1			RWRR			RWRU			RCAR			LACR1			LUA1			LElbow			LElbowM			LFA1			LWRR			LWRU			LCAR			RTH1			RTH3			RTH2			RLFC			RMFC			RTB1			RTB3			RTB2			RTB4			RLMAL			RCAL			RMT1			RMT5			RToe			LTH1			LTH3			LTH2			LTH4			LLFC			LMFC			LTB1			LTB3			LTB2			LTB4			LLMAL			LCAL			LMT1			LMT5			LToe			RPSI			RMMAL			LMMAL			RTH4			*61			*62			*63			*64			*65			
		X1	Y1	Z1	X2	Y2	Z2	X3	Y3	Z3	X4	Y4	Z4	X5	Y5	Z5	X6	Y6	Z6	X7	Y7	Z7	X8	Y8	Z8	X9	Y9	Z9	X10	Y10	Z10	X11	Y11	Z11	X12	Y12	Z12	X13	Y13	Z13	X14	Y14	Z14	X15	Y15	Z15	X16	Y16	Z16	X17	Y17	Z17	X18	Y18	Z18	X19	Y19	Z19	X20	Y20	Z20	X21	Y21	Z21	X22	Y22	Z22	X23	Y23	Z23	X24	Y24	Z24	X25	Y25	Z25	X26	Y26	Z26	X27	Y27	Z27	X28	Y28	Z28	X29	Y29	Z29	X30	Y30	Z30	X31	Y31	Z31	X32	Y32	Z32	X33	Y33	Z33	X34	Y34	Z34	X35	Y35	Z35	X36	Y36	Z36	X37	Y37	Z37	X38	Y38	Z38	X39	Y39	Z39	X40	Y40	Z40	X41	Y41	Z41	X42	Y42	Z42	X43	Y43	Z43	X44	Y44	Z44	X45	Y45	Z45	X46	Y46	Z46	X47	Y47	Z47	X48	Y48	Z48	X49	Y49	Z49	X50	Y50	Z50	X51	Y51	Z51	X52	Y52	Z52	X53	Y53	Z53	X54	Y54	Z54	X55	Y55	Z55	X56	Y56	Z56	X57	Y57	Z57	X58	Y58	Z58	X59	Y59	Z59	X60	Y60	Z60	X61	Y61	Z61	X62	Y62	Z62	X63	Y63	Z63	X64	Y64	Z64	X65	Y65	Z65	X66	Y66	Z66	

551	2.750	-39.39673	-385.10724	1691.05078	60.16617	-385.90573	1694.48230	-47.50643	-528.46490	1597.44641				20.48854	-556.62024	1484.99072	16.41245	-555.89240	1164.50757	22.13776	-352.33322	1448.20361	20.37957	-258.95889	1301.57971	135.20506	-589.02008	1355.46655	-165.05540	-318.20123	1017.49188	204.55785	-317.68286	1015.90210	-31.53090	-570.07080	1040.01453	164.73929	-501.18610	1523.10876	331.46130	-463.71930	1470.90503	462.04865	-392.99869	1458.71790	444.28058	-290.36304	1383.96423	588.78198	-305.78595	1468.05457	643.73706	-193.10490	1517.49365				739.59344	-185.82840	1489.30310	-125.80322	-500.56448	1519.78918	-281.83160	-479.53470	1454.66455	-433.32709	-430.82281	1430.15552	-428.24469	-336.11899	1349.51990	-554.18243	-362.35690	1441.63562	-640.71558	-268.87415	1502.28040				-729.14569	-245.17337	1480.63647	239.05399	-411.79837	796.83282	224.50174	-387.51425	626.21417	223.55820	-341.14401	720.20496	221.84367	-398.27811	509.58023	66.20037	-389.26303	501.82404	160.66251	-340.28250	381.29263	157.64748	-375.69461	211.91403	216.29080	-380.72845	301.54950	159.45518	-357.62427	296.54263	191.58777	-468.81183	79.69825	143.15482	-527.89392	48.65940	151.98442	-306.85135	27.38716	250.24840	-366.10513	33.22839	189.87508	-259.43060	30.11358	-201.14342	-376.11862	790.80737	-193.15384	-367.55063	619.45538	-180.33777	-315.02216	709.22345	-196.44011	-372.90692	705.51569	-199.14220	-384.99985	533.94891	-45.69063	-365.48523	504.92197	-150.89122	-323.67404	399.33600	-145.80702	-359.89609	230.20721	-202.31660	-366.69830	318.04361	-146.75836	-338.39102	315.40109	-176.77986	-461.34790	81.29915	-131.57756	-516.87067	46.36695	-137.59579	-302.53305	40.46906	-227.78033	-348.42340	24.32821	-166.07544	-243.66818	26.77977	44.83804	-581.46234	1032.09814	107.40203	-430.89194	77.80640	-92.30327	-444.06573	78.31921	235.93111	-398.78589	712.97778	-659.49994	-255.58978	1437.37134	5.65459	4231.41650	1406.96155	676.89508	-217.60809	1450.90918				97.61689	-514.24097	1611.48486 
552	2.755	-39.48424	-385.15790	1691.09009	60.14751	-385.88907	1694.48438	-47.66277	-528.51965	1597.47607				20.51622	-556.62469	1484.97034	16.44807	-555.87866	1164.50525	22.13757	-352.37921	1448.22998	20.29882	-258.97159	1301.62170	135.23431	-589.02148	1355.47205	-165.06786	-318.24567	1017.50055	204.41698	-317.77103	1015.84967	-31.55713	-570.11194	1040.02759	164.71950	-501.16089	1523.09155	331.54312	-463.69843	1470.88745	462.10245	-393.02243	1458.79175	444.28397	-290.36212	1383.97607	588.65326	-305.62830	1467.92310	643.78156	-193.14459	1517.55334				739.52588	-185.76947	1489.42017	-125.77007	-500.58032	1519.79272	-281.86243	-479.56616	1454.67615	-433.21277	-431.06088	1430.13171	-428.31985	-336.26080	1349.51990	-554.16034	-362.46896	1441.64539	-640.82922	-268.97729	1502.29224				-729.80255	-245.94916	1481.03015	238.96388	-411.88232	796.78333	224.45374	-387.49933	626.10693	223.59831	-341.13562	720.25140	221.83533	-398.26801	509.58740	66.17587	-389.25717	501.82413	160.63179	-340.29797	381.31363	157.56343	-375.72034	211.85149	216.27013	-380.71262	301.53723	159.45628	-357.63135	296.55466	191.57559	-468.80618	79.70235	143.11801	-527.87732	48.64756	151.98770	-306.84839	27.36480	251.16759	-365.93430	33.66763	189.83000	-259.40533	30.17766	-201.14301	-376.14090	790.81702	-193.14722	-367.54910	619.45068	-180.33607	-315.02768	709.21539	-196.43964	-372.89410	705.51709	-199.12962	-385.01556	533.95850	-45.68599	-365.47830	504.92825	-150.88693	-323.68875	399.33029	-145.83237	-359.91190	230.24821	-202.31470	-366.71057	318.03827	-146.76355	-338.39102	315.42862	-176.75893	-461.34595	81.31441	-131.51961	-516.88916	46.22430	-137.52187	-302.40149	40.63544	-227.75372	-348.40021	24.31793	-166.02605	-243.44542	26.84218	45.01952	-581.24634	1032.03052	107.40183	-430.87268	77.77503	-92.22427	-444.05231	78.31082	235.86732	-398.76730	712.98700	-659.78601	-256.16345	1437.62805	5.53392	4231.83545	1406.97437	676.63953	-216.84663	1450.54553				97.67188	-514.03168	1611.13159 
553	2.760	-39.50838	-385.17844	1691.06213	60.13111	-385.86865	1694.49048	-47.80569	-528.57275	1597.49402				20.55018	-556.58759	1484.93738	16.46809	-555.86664	1164.50671	22.13592	-352.42474	1448.24133	20.26622	-258.98322	1301.58667	135.24808	-589.02258	1355.47839	-165.09077	-318.27585	1017.50165	204.26678	-317.85883	1015.78632	-31.57574	-570.14697	1040.03625	164.70885	-501.16309	1523.10522	331.62430	-463.67535	1470.89648	462.15454	-393.02164	1458.86255	444.27139	-290.35532	1384.01038	588.44055	-305.52109	1467.93921	643.77930	-193.19023	1517.60803				739.40436	-185.68271	1489.51648	-125.73205	-500.59854	1519.80139	-281.87756	-479.59702	1454.68579	-433.36826	-431.38617	1430.26929	-428.38287	-336.41748	1349.52258	-554.15179	-362.55252	1441.66443	-640.89185	-269.12439	1502.41467				-730.44427	-246.74249	1481.38770	238.86555	-411.89185	796.75024	224.49535	-387.53717	626.03308	223.60103	-341.14087	720.30438	221.83801	-398.25473	509.58990	66.16592	-389.24823	501.82602	160.61256	-340.31128	381.33105	157.51672	-375.75256	211.82994	216.25180	-380.70776	301.54239	159.45720	-357.65033	296.55789	191.55917	-468.81696	79.69162	143.04903	-527.86835	48.59691	151.99667	-306.84595	27.34081	251.68684	-365.83875	33.80757	189.80879	-259.44016	30.10779	-201.14980	-376.15543	790.82111	-193.15741	-367.54532	619.43353	-180.34831	-315.04172	709.19818	-196.43097	-372.88016	705.51874	-199.13721	-385.02594	533.94489	-45.67973	-365.47235	504.93100	-150.86455	-323.69580	399.34705	-145.86295	-359.92267	230.29842	-202.30420	-366.71875	318.03760	-146.76625	-338.38751	315.44699	-176.74281	-461.34082	81.33010	-131.49280	-516.98596	46.00298	-137.50127	-302.29095	40.75985	-227.69818	-348.35501	24.30231	-166.00317	-243.22845	26.92621	45.18459	-581.19873	1031.91113	107.40294	-430.84924	77.76757	-92.15215	-444.03308	78.33170	235.55710	-398.92685	712.87860	-660.11279	-256.69629	1437.84326	5.41442	4232.25439	1406.98669	675.96686	-216.09160	1450.05725				97.72273	-513.84363	1610.82483 
554	2.765	-39.53141	-385.23718	1691.02637	60.11938	-385.84586	1694.49646	-47.89675	-528.65088	1597.52051				20.59306	-556.55334	1484.89905	16.48276	-555.87415	1164.51050	22.12410	-352.45142	1448.22192	20.27329	-258.99149	1301.53955	135.25160	-589.02106	1355.48169	-165.10333	-318.27255	1017.50409	204.21368	-317.89252	1015.76117	-31.58628	-570.17084	1040.04077	164.70001	-501.17627	1523.12488	331.69559	-463.65070	1470.92566	462.19189	-393.00323	1458.91394	444.24582	-290.34433	1384.06445	588.14874	-305.39838	1468.03784	643.74200	-193.23779	1517.68701				739.24011	-185.57950	1489.59741	-125.69317	-500.62970	1519.81396	-281.87051	-479.63483	1454.68787	-433.78638	-431.68686	1430.52979	-428.42032	-336.58759	1349.53015	-554.16333	-362.65356	1441.67078	-640.94556	-269.27579	1502.48682				-731.03925	-247.53636	1481.70935	238.77773	-411.84216	796.73767	224.66623	-387.57077	626.00067	223.60364	-341.16553	720.33447	221.82030	-398.26538	509.60870	66.10441	-389.22858	501.84607	160.59007	-340.31989	381.33878	157.51288	-375.77802	211.85176	216.25494	-380.70123	301.53900	159.45470	-357.65976	296.55008	191.54834	-468.84128	79.68351	143.07048	-527.88324	48.65562	152.00917	-306.84839	27.32874	252.35213	-365.75351	34.02153	189.81752	-259.51062	29.95484	-201.15154	-376.16220	790.82770	-193.16626	-367.56134	619.42755	-180.36287	-315.05835	709.18347	-196.43425	-372.87445	705.52850	-199.14876	-385.03442	533.92865	-45.67245	-365.46793	504.93039	-150.84000	-323.69333	399.36563	-145.89342	-359.92416	230.30705	-202.29854	-366.72531	318.03189	-146.75845	-338.38327	315.45059	-176.72946	-461.33466	81.34120	-131.44429	-516.98505	45.90718	-137.53465	-302.32895	40.62861	-227.61684	-348.27835	24.27376	-166.01599	-243.11729	26.96511	45.30094	-581.29193	1031.78955	107.40173	-430.83710	77.74734	-92.08524	-444.04855	78.29393	234.88818	-399.26917	712.65784	-660.47125	-257.15826	1437.98645	5.29710	4232.67334	1406.99805	674.92749	-215.39830	1449.52368				97.73813	-513.75220	1610.69775 
555	2.770	-39.48293	-385.30783	1690.97900	60.11469	-385.82117	1694.49438	-47.93852	-528.73767	1597.55151				20.63910	-556.52747	1484.86560	16.48690	-555.89795	1164.51416	22.09654	-352.46011	1448.18799	20.26064	-259.01187	1301.60400	135.25186	-589.02686	1355.47327	-165.10960	-318.29453	1017.49835	204.13124	-317.84851	1015.65942	-31.59747	-570.19135	1040.05103	164.70746	-501.21588	1523.14722	331.74329	-463.63068	1470.97156	462.20642	-392.99075	1458.97681	444.20999	-290.33194	1384.14478	587.83630	-305.29694	1468.19507	643.70483	-193.24083	1517.77881				739.03967	-185.47461	1489.67883	-125.67319	-500.65649	1519.80420	-281.84396	-479.67331	1454.67773	-434.37933	-431.91602	1430.84424	-428.43787	-336.77753	1349.52991	-554.16449	-362.74496	1441.64758	-641.00024	-269.40579	1502.47766				-731.57556	-248.31256	1481.98132	238.72116	-411.76315	796.73901	224.89168	-387.60681	626.02130	223.63016	-341.18356	720.37024	221.79129	-398.29245	509.62735	66.05790	-389.23068	501.86661	160.58760	-340.32034	381.34103	157.54607	-375.79913	211.89813	216.26920	-380.69156	301.53622	159.46227	-357.68448	296.54477	191.54778	-468.88083	79.68279	143.04648	-527.90552	48.66994	152.01401	-306.85089	27.31839	252.55301	-365.74124	33.95141	189.85474	-259.58731	29.79644	-201.15425	-376.16202	790.82697	-193.18381	-367.58017	619.41571	-180.36870	-315.06793	709.18115	-196.44955	-372.87802	705.54028	-199.18599	-385.03671	533.89612	-45.67270	-365.47238	504.93341	-150.83054	-323.69736	399.40161	-145.92860	-359.92062	230.30467	-202.30156	-366.72916	318.01773	-146.76541	-338.37341	315.44800	-176.75056	-461.36218	81.31592	-131.43860	-516.84570	46.16683	-137.58635	-302.45212	40.37209	-227.77516	-348.38846	24.31744	-166.38701	-243.60861	26.72168	45.36035	-581.46167	1031.71509	107.39900	-430.82596	77.74569	-92.02962	-444.05386	78.29142	234.24194	-399.43570	712.27997	-660.75879	-257.40826	1437.65784	5.18282	4233.09277	1407.00977	673.58453	-214.71376	1448.98755				97.71458	-513.76971	1610.78174 
